<svg fill="#fff" height="800" stroke="#fff" viewBox="0 0 956.199 956.199" width="800" xmlns="http://www.w3.org/2000/svg"><path d="m859.649 385.6h-255.2l75.601-75.6c35.1-35.1 35.1-92.1 0-127.3-35.101-35.1-92.101-35.1-127.3 0l-229.301 229.3c-21.6 22.6-32.199 55.3-23.6 85.9 2.3 8.299 5.8 17.5 10.5 24.799 3.9 6 8.4 11.201 13.1 16.602l234.2 234.199c17.601 17.6 40.601 26.4 63.601 26.4s46.1-8.801 63.6-26.4c35.1-35.1 35.1-92.1 0-127.301l-80.6-80.6h255.1c49.7 0 90-40.299 90-90 0-49.699-40-89.999-89.701-89.999z"/><path d="m96.85 0c-49.7 0-90 40.3-90 90v776.199c0 49.701 40.3 90 90 90s90-40.299 90-90v-776.199c0-49.7-40.3-90-90-90z"/></svg>