<?xml version="1.0" encoding="UTF-8" standalone="no"?>
<svg
   id="svg"
   version="1.1"
   width="500"
   height="200"
   viewBox="0 0 500 200"
   sodipodi:docname="PRIJ_horizontal_white.svg"
   inkscape:version="1.3 (0e150ed6c4, 2023-07-21)"
   xmlns:inkscape="http://www.inkscape.org/namespaces/inkscape"
   xmlns:sodipodi="http://sodipodi.sourceforge.net/DTD/sodipodi-0.dtd"
   xmlns="http://www.w3.org/2000/svg"
   xmlns:svg="http://www.w3.org/2000/svg">
  <defs
     id="defs1" />
  <sodipodi:namedview
     id="namedview1"
     pagecolor="#ffffff"
     bordercolor="#666666"
     borderopacity="1.0"
     inkscape:showpageshadow="2"
     inkscape:pageopacity="0.0"
     inkscape:pagecheckerboard="0"
     inkscape:deskcolor="#d1d1d1"
     inkscape:zoom="2.2786516"
     inkscape:cx="278.23472"
     inkscape:cy="206.48176"
     inkscape:window-width="2400"
     inkscape:window-height="1566"
     inkscape:window-x="-11"
     inkscape:window-y="-11"
     inkscape:window-maximized="1"
     inkscape:current-layer="g1" />
  <g
     id="g1"
     transform="translate(10.149951,-92.145674)">
    <g
       id="g2"
       transform="matrix(1.609539,0,0,1.609539,-266.79954,-66.323934)"
       style="stroke-width:0.621296;fill:#ffffff">
      <path
         style="font-weight:bold;font-size:27.1696px;font-family:Sukar;-inkscape-font-specification:'Sukar, Bold';fill:#ffffff;stroke-width:0.621295"
         d="m 308.57065,189.04902 c 1.22051,-0.25207 1.84403,-0.84905 1.84403,-1.80423 0,-0.55719 -0.29186,-1.04805 -0.84905,-1.47258 -0.55719,-0.42452 -1.22051,-0.72965 -1.9767,-0.91538 -0.76945,-0.18573 -1.52563,-0.29186 -2.28182,-0.29186 -1.80423,0 -3.30333,0.45106 -4.51058,1.32664 -1.22051,0.88885 -1.81749,2.13589 -1.81749,3.75439 0,1.04805 0.22553,1.9369 0.68985,2.67982 0.45106,0.74292 1.03478,1.30011 1.72463,1.64503 0.68986,0.3582 1.43277,0.68986 2.25529,0.98172 0.80925,0.30512 1.56544,0.55719 2.25529,0.75618 0.68985,0.199 1.26031,0.49086 1.72463,0.88885 0.45106,0.39799 0.68986,0.88885 0.68986,1.47257 0,0.98172 -0.3582,1.71137 -1.04805,2.18896 -0.70312,0.47759 -1.5787,0.71639 -2.61348,0.71639 -0.91538,0 -1.8175,-0.22553 -2.69308,-0.70312 -0.88885,-0.47759 -1.51237,-1.06132 -1.87057,-1.75117 -1.06131,0.50412 -1.5787,1.11438 -1.5787,1.8573 0,0.74292 0.58372,1.39297 1.75117,1.92363 1.16744,0.54392 2.49408,0.80925 4.00645,0.80925 0.86232,0 1.67157,-0.0929 2.41449,-0.29186 0.74292,-0.199 1.43277,-0.51739 2.08282,-0.95519 0.63679,-0.42452 1.14091,-1.03478 1.51237,-1.83076 0.3582,-0.78272 0.54393,-1.71137 0.54393,-2.78594 0,-0.84905 -0.17247,-1.57871 -0.51739,-2.18896 -0.34493,-0.61026 -0.79599,-1.08785 -1.35318,-1.41951 -0.55719,-0.31839 -1.15417,-0.59699 -1.81749,-0.83578 -0.66332,-0.2388 -1.32664,-0.43779 -1.98997,-0.62352 -0.66332,-0.18573 -1.2603,-0.37146 -1.81749,-0.58372 -0.55719,-0.21227 -0.99498,-0.50413 -1.33991,-0.87559 -0.34493,-0.37146 -0.51739,-0.82251 -0.51739,-1.3797 0,-0.87559 0.30513,-1.55217 0.92865,-2.00323 0.62352,-0.45106 1.40624,-0.68985 2.33489,-0.68985 0.79598,0 1.56543,0.23879 2.30835,0.68985 0.74292,0.45106 1.24704,1.02151 1.52564,1.71137 z m 13.95626,7.68125 c 0,1.32664 -0.30513,2.38795 -0.88885,3.18393 -0.58372,0.79599 -1.41951,1.19398 -2.48082,1.19398 -1.03478,0 -1.8573,-0.47759 -2.44102,-1.43277 -0.58372,-0.95518 -0.87558,-2.17569 -0.87558,-3.64826 0,-1.32664 0.27859,-2.38796 0.86231,-3.18394 0.58373,-0.79599 1.39298,-1.19398 2.45429,-1.19398 1.03478,0 1.84403,0.49086 2.45428,1.45931 0.61026,0.96844 0.91539,2.17569 0.91539,3.62173 z m -3.36967,6.38114 c 1.8971,0 3.42273,-0.61026 4.59018,-1.83077 1.15417,-1.22051 1.7379,-2.85227 1.7379,-4.90857 0,-2.04302 -0.58373,-3.66153 -1.7379,-4.88203 -1.16745,-1.20725 -2.69308,-1.8175 -4.59018,-1.8175 -1.88383,0 -3.40947,0.61025 -4.55038,1.8175 -1.15418,1.2205 -1.72463,2.83901 -1.72463,4.88203 0,2.0563 0.57045,3.68806 1.72463,4.90857 1.14091,1.22051 2.66655,1.83077 4.55038,1.83077 z m 12.47042,-14.06239 c 0,-1.48584 0.18573,-2.49409 0.57046,-3.02474 0.31839,-0.398 0.74291,-0.59699 1.24704,-0.59699 0.70312,0 1.3797,0.30512 2.04302,0.90211 0.66332,-0.54392 1.00825,-1.06131 1.00825,-1.55217 0,-0.42452 -0.25206,-0.76945 -0.74292,-1.00824 -0.49086,-0.2388 -1.10111,-0.37146 -1.8175,-0.37146 -1.88383,0 -3.1972,0.53065 -3.94012,1.59197 -0.74292,1.06131 -1.14091,2.71961 -1.16744,4.9749 -0.38473,0 -0.74292,0.0265 -1.06131,0.0531 -0.37146,0.0796 -0.65006,0.199 -0.84905,0.33166 -0.199,0.14593 -0.29187,0.41126 -0.29187,0.78272 0,0.38473 0.0265,0.71639 0.10614,1.00825 1.14091,-0.10613 1.83076,-0.1592 2.09609,-0.1592 0,1.27358 -0.0133,2.91861 -0.0265,4.96164 -0.0265,2.04302 -0.0265,3.54213 -0.0265,4.52384 0,0.53066 0.13267,0.90212 0.41126,1.12765 0.2786,0.22553 0.79599,0.33166 1.56544,0.33166 0.53065,0 0.99498,-0.0796 1.39297,-0.26533 -0.34493,-1.15418 -0.51739,-2.93188 -0.51739,-5.3331 v -5.37289 c 0.98171,0 1.72463,0 2.25529,-0.0265 0.46432,-0.0133 0.80925,-0.10613 1.02151,-0.2786 0.21226,-0.17246 0.33166,-0.49086 0.33166,-0.94191 0,-0.37146 -0.0531,-0.66332 -0.13266,-0.87559 -0.79599,0.0929 -1.96343,0.13267 -3.4758,0.13267 z m 5.39943,0.91538 c -0.47759,0.0531 -0.80925,0.17246 -1.02151,0.33166 -0.21227,0.1592 -0.30513,0.47759 -0.30513,0.95518 0,0.39799 0.0265,0.70312 0.10613,0.88885 0.47759,-0.0663 1.31337,-0.13267 2.48082,-0.21226 0,0.29186 -0.0133,1.18071 -0.0133,2.69308 -0.0133,1.51237 -0.0133,2.70634 -0.0133,3.55539 0,3.29007 1.51238,4.93511 4.53712,4.93511 0.66332,0 1.2603,-0.1194 1.79096,-0.37146 0.53066,-0.25206 0.80925,-0.63679 0.80925,-1.16745 0,-0.35819 -0.23879,-0.80925 -0.70312,-1.3399 -0.61025,0.63678 -1.18071,0.95518 -1.7379,0.95518 -0.39799,0 -0.72965,-0.0929 -0.98171,-0.2786 -0.26533,-0.18573 -0.45106,-0.47759 -0.57046,-0.86231 -0.13266,-0.37146 -0.21226,-0.75619 -0.23879,-1.14091 -0.0398,-0.37146 -0.0531,-0.86232 -0.0531,-1.44604 0,-1.96343 0.0133,-3.80746 0.0531,-5.50556 1.40624,0 2.37468,0 2.93187,-0.0265 0.46433,-0.0133 0.80925,-0.10613 1.02152,-0.2786 0.21226,-0.17246 0.33166,-0.50412 0.33166,-1.00824 0,-0.3582 -0.0531,-0.63679 -0.1592,-0.83579 -0.76945,0.10613 -2.12262,0.1592 -4.07279,0.1592 0.0531,-0.80925 0.0796,-1.43277 0.0796,-1.87056 0,-0.66333 -0.62352,-1.00825 -1.87056,-1.00825 -0.51739,0 -0.96845,0.0398 -1.33991,0.10613 0.0663,0.76945 0.1194,1.68483 0.17246,2.74615 -0.66332,0 -1.07457,0.0133 -1.23377,0.0265 z m 26.41341,-0.29186 c -0.49085,0 -0.91538,0.0531 -1.27357,0.15919 0.0531,0.2786 0.0796,0.58373 0.0796,0.90212 0,1.40624 -0.26533,3.01147 -0.79599,4.78917 -0.53065,1.79097 -1.08784,3.18394 -1.67156,4.19219 -0.53066,-1.88383 -1.35318,-4.28505 -2.45429,-7.21693 0.1592,-0.66332 0.25206,-1.24704 0.25206,-1.7379 0,-0.71638 -0.51739,-1.08784 -1.52563,-1.08784 -0.4776,0 -0.90212,0.0531 -1.30011,0.15919 0.0531,0.2786 0.0796,0.58373 0.0796,0.90212 0,1.35317 -0.2786,2.95841 -0.82252,4.78917 -0.54392,1.84403 -1.08785,3.23701 -1.6185,4.19219 -0.45106,-1.51237 -0.99498,-3.23701 -1.6583,-5.16064 -0.66332,-1.91036 -1.15418,-3.18393 -1.47257,-3.82072 -0.3184,-0.63679 -0.76946,-0.95518 -1.37971,-0.95518 -0.63679,0 -1.35317,0.31839 -2.14916,0.92865 0.65006,0.65005 1.44604,2.29509 2.38795,4.94837 0.94192,2.65328 1.61851,5.04123 2.04303,7.16386 0.29186,0.0796 0.71639,0.10613 1.27358,0.10613 0.75618,0 1.4195,-0.3582 2.00322,-1.08785 0.84905,-1.06131 1.71137,-2.71961 2.58695,-4.94837 0.65006,2.04303 1.16745,4.01972 1.55217,5.93009 0.29186,0.0796 0.70312,0.10613 1.24704,0.10613 0.75619,0 1.43278,-0.3582 2.04303,-1.08785 0.91538,-1.15418 1.83076,-2.98494 2.73288,-5.47902 0.90212,-2.49409 1.36644,-4.36465 1.36644,-5.59843 0,-0.71638 -0.51739,-1.08784 -1.52564,-1.08784 z m 10.54679,9.28648 c 0,0.57046 0.0133,0.96845 0.0531,1.19398 -0.66332,0.68985 -1.44604,1.03478 -2.37469,1.03478 -0.55719,0 -1.02151,-0.17247 -1.37971,-0.51739 -0.37146,-0.34493 -0.54392,-0.87558 -0.54392,-1.60524 0,-0.23879 0.0398,-0.46432 0.13267,-0.65005 0.0929,-0.18573 0.25206,-0.34493 0.46432,-0.47759 0.21226,-0.13267 0.42452,-0.2388 0.61025,-0.33166 0.18573,-0.0929 0.49086,-0.17247 0.91539,-0.25206 0.41125,-0.0663 0.74292,-0.1194 0.98171,-0.1592 0.2388,-0.0265 0.63679,-0.0796 1.19398,-0.1592 -0.0398,0.45106 -0.0531,1.10111 -0.0531,1.92363 z m 0.10613,-3.58193 c -2.20222,0.0265 -3.83399,0.199 -4.92183,0.54392 -0.72966,0.2388 -1.31338,0.59699 -1.7379,1.08785 -0.43779,0.49086 -0.65006,1.24704 -0.65006,2.25529 0,1.27357 0.34493,2.22876 1.04805,2.87881 0.68985,0.65005 1.56543,0.96845 2.61348,0.96845 1.35317,0 2.58695,-0.46433 3.6748,-1.40624 0.18573,0.83578 0.79598,1.24704 1.81749,1.24704 0.50413,0 1.02152,-0.0929 1.55217,-0.29186 -0.34492,-1.03478 -0.51739,-2.58695 -0.51739,-4.65651 0,-0.75618 0,-1.5389 0.0265,-2.33489 0.0133,-0.79598 0.0265,-1.22051 0.0265,-1.27357 0,-1.7777 -0.38473,-2.99821 -1.15418,-3.68806 -0.76945,-0.68986 -1.98996,-1.03478 -3.66153,-1.03478 -1.39297,0 -2.64001,0.26533 -3.72786,0.79598 -1.10111,0.53066 -1.64503,1.18071 -1.64503,1.95016 0,0.94192 0.79598,1.41951 2.41448,1.43278 0.2388,-0.68986 0.62353,-1.22051 1.15418,-1.61851 0.53066,-0.38472 1.10111,-0.58372 1.6981,-0.58372 0.46433,0 0.83579,0.10613 1.12765,0.29186 0.27859,0.18573 0.47759,0.49086 0.59698,0.90212 0.1194,0.42452 0.199,0.79598 0.22553,1.11438 0.0265,0.33166 0.0398,0.80925 0.0398,1.4195 z m 7.44246,-5.51882 c -0.42452,0 -0.88885,0.0531 -1.4195,0.13266 0.15919,1.35317 0.25206,3.52887 0.25206,6.55361 0,0.58372 -0.0133,1.3797 -0.0265,2.38795 -0.0265,1.02151 -0.0265,1.63177 -0.0265,1.84403 0,0.76945 0.13267,1.31337 0.39799,1.6583 0.26533,0.34493 0.79599,0.51739 1.57871,0.51739 0.58372,0 1.11437,-0.10613 1.60523,-0.34493 -0.49086,-1.14091 -0.72965,-2.89207 -0.72965,-5.28003 0,-1.19397 0.0265,-2.36142 0.0796,-3.52886 0.74292,-0.99498 1.56543,-1.4991 2.49408,-1.4991 0.47759,0 0.90212,0.17246 1.28684,0.49085 0.63679,-0.80925 0.96845,-1.47257 0.96845,-1.97669 0,-0.75619 -0.53066,-1.14091 -1.56544,-1.14091 -1.00824,0 -2.02976,0.66332 -3.0778,1.97669 v -0.31839 c 0,-0.50413 -0.14593,-0.87558 -0.42453,-1.11438 -0.27859,-0.2388 -0.74292,-0.35819 -1.39297,-0.35819 z m 12.98781,7.64145 c 0.91538,0 1.6981,-0.0398 2.33489,-0.13267 0.63679,-0.0929 1.26031,-0.26533 1.87056,-0.51739 0.61026,-0.25206 1.07458,-0.65005 1.39297,-1.20724 0.3184,-0.55719 0.47759,-1.26031 0.47759,-2.10936 0,-1.04804 -0.43779,-1.95016 -1.28684,-2.71961 -0.86231,-0.75619 -1.98996,-1.14091 -3.38293,-1.14091 -1.7379,0 -3.25027,0.59699 -4.52385,1.7777 -1.27357,1.19397 -1.91036,2.89207 -1.91036,5.12083 0,2.12262 0.66332,3.75439 1.98996,4.86877 1.32664,1.11438 2.85228,1.67157 4.55038,1.67157 1.04805,0 2.00323,-0.1592 2.85228,-0.47759 0.84905,-0.3184 1.28684,-0.79599 1.28684,-1.41951 0,-0.53066 -0.45106,-1.04805 -1.33991,-1.52564 -0.25206,0.47759 -0.63679,0.84905 -1.16744,1.10112 -0.53066,0.25206 -1.03478,0.37146 -1.51237,0.37146 -0.95518,0 -1.75117,-0.29187 -2.38795,-0.88885 -0.63679,-0.59699 -1.04805,-1.53891 -1.23378,-2.83902 0.82252,0.0531 1.48584,0.0663 1.98996,0.0663 z m 1.16744,-5.85049 c 0.55719,0 1.02152,0.199 1.39298,0.57046 0.37146,0.38472 0.55719,0.83578 0.55719,1.36644 0,1.16744 -0.87559,1.84403 -2.62675,2.05629 -0.55719,0.0531 -1.40624,0.0796 -2.56042,0.0796 0.10613,-1.40624 0.45106,-2.42775 1.06131,-3.09107 0.59699,-0.65006 1.32664,-0.98172 2.17569,-0.98172 z m 26.73181,6.9914 c -0.43779,0.78272 -1.03478,1.36644 -1.79097,1.75116 -0.76945,0.398 -1.55217,0.58373 -2.37468,0.58373 -1.79097,0 -3.18394,-0.72966 -4.16565,-2.18896 -0.99498,-1.45931 -1.48584,-3.2768 -1.48584,-5.47903 0,-1.89709 0.47759,-3.4758 1.4593,-4.72284 0.96845,-1.24704 2.22876,-1.88383 3.76766,-1.88383 0.75619,0 1.48584,0.22553 2.17569,0.67659 0.68986,0.45106 1.18071,1.08784 1.45931,1.93689 0.71638,-0.10613 1.26031,-0.31839 1.6185,-0.65005 0.34493,-0.31839 0.53066,-0.70312 0.53066,-1.14091 0,-0.82252 -0.50413,-1.52564 -1.49911,-2.09609 -0.99498,-0.57046 -2.22875,-0.86232 -3.68806,-0.86232 -2.73288,0 -4.90857,0.82252 -6.5138,2.45429 -1.60524,1.64503 -2.40122,3.91359 -2.40122,6.80566 0,2.77268 0.79598,5.0147 2.40122,6.72607 1.60523,1.71137 3.72786,2.56042 6.38114,2.56042 1.60523,0 2.93187,-0.26533 3.99318,-0.79599 1.06132,-0.53065 1.59197,-1.16744 1.59197,-1.91036 0,-0.34493 -0.14593,-0.67659 -0.43779,-0.99498 -0.29186,-0.31839 -0.62352,-0.57046 -1.02151,-0.76945 z m 13.17354,-1.91036 c 0,1.32664 -0.30512,2.38795 -0.88884,3.18393 -0.58373,0.79599 -1.41951,1.19398 -2.48082,1.19398 -1.03478,0 -1.8573,-0.47759 -2.44102,-1.43277 -0.58372,-0.95518 -0.87558,-2.17569 -0.87558,-3.64826 0,-1.32664 0.27859,-2.38796 0.86231,-3.18394 0.58372,-0.79599 1.39298,-1.19398 2.45429,-1.19398 1.03478,0 1.84403,0.49086 2.45428,1.45931 0.61026,0.96844 0.91538,2.17569 0.91538,3.62173 z m -3.36966,6.38114 c 1.89709,0 3.42273,-0.61026 4.59017,-1.83077 1.15418,-1.22051 1.7379,-2.85227 1.7379,-4.90857 0,-2.04302 -0.58372,-3.66153 -1.7379,-4.88203 -1.16744,-1.20725 -2.69308,-1.8175 -4.59017,-1.8175 -1.88383,0 -3.40947,0.61025 -4.55038,1.8175 -1.15418,1.2205 -1.72463,2.83901 -1.72463,4.88203 0,2.0563 0.57045,3.68806 1.72463,4.90857 1.14091,1.22051 2.66655,1.83077 4.55038,1.83077 z m 10.45393,0 c 0.53065,0 0.99498,-0.17247 1.39297,-0.54393 0.39799,-0.37146 0.59699,-0.82251 0.59699,-1.3797 0,-0.53066 -0.199,-0.99498 -0.57046,-1.36644 -0.38472,-0.37146 -0.83578,-0.55719 -1.35317,-0.55719 -0.55719,0 -1.02152,0.18573 -1.41951,0.55719 -0.39799,0.37146 -0.59699,0.83578 -0.59699,1.36644 0,0.57045 0.18573,1.03478 0.57046,1.39297 0.37146,0.35819 0.83578,0.53066 1.37971,0.53066 z"
         id="text1"
         aria-label="Software Co." />
      <path
         d="m 300.74665,123.9307 v 54.4809 h 13.00055 v -20.20746 h 7.81416 c 11.13344,0 19.50081,-6.27356 19.50081,-17.49993 0,-11.29241 -8.36737,-16.77351 -19.50081,-16.77351 z m 13.00055,24.36782 v -14.4622 h 3.66504 c 5.11724,0 9.95787,1.65093 9.95787,7.26412 0,5.54714 -4.84063,7.19808 -9.95787,7.19808 z m 33.05459,-24.36782 v 54.4809 h 13.00055 v -21.52821 l 17.42626,21.52821 h 16.52728 l -19.63912,-22.51877 c 6.98433,-2.1132 11.68666,-7.59431 11.68666,-15.78295 0,-10.69808 -8.02161,-16.17918 -18.60185,-16.17918 z m 13.00055,24.16971 v -14.26409 h 1.52133 c 4.90978,0 10.78769,0.33019 10.78769,7.13205 0,6.80186 -5.87791,7.13204 -10.78769,7.13204 z M 409.315,123.9307 h -13.00054 v 54.4809 H 409.315 Z m 33.12376,0 h -13.00054 v 35.92438 c 0,5.48111 -2.83522,7.66034 -6.56942,7.66034 -3.31928,0 -7.39924,-3.6981 -7.39924,-3.6981 l -4.14911,10.36788 c 0,0 5.18638,5.21696 13.3463,5.21696 11.41005,0 17.77201,-5.67921 17.77201,-16.37729 z"
         id="text2"
         style="font-weight:bold;font-size:67.5767px;font-family:Hussar;-inkscape-font-specification:'Hussar, Bold';fill:#ffffff;stroke-width:0.621293"
         aria-label="PRIJ" />
    </g>
    <g
       id="g9"
       transform="translate(-89.526631,36.863907)"
       style="fill:#ffffff;stroke:#ffffff">
      <path
         id="path0-5-6"
         style="display:inline;fill:#ffffff;fill-opacity:1;stroke:#ffffff;stroke-width:1;stroke-dasharray:none;stroke-opacity:1"
         d="m 200.44841,83.221144 c -3.52823,-0.0612 -6.94033,0.0702 -10.04883,0.417969 -20.25892,2.264988 -34.69888,9.415821 -46.21484,22.884767 l -1.98633,2.32422 -1.39844,-0.71485 c -6.75696,-3.45096 -14.40506,1.30201 -17.16406,10.66797 -0.291,0.99 -0.66885,2.24883 -0.83984,2.79883 -0.319,1.027 -0.84213,3.60158 -1.57813,7.76758 -0.534,3.02099 -0.54468,17.94139 -0.0156,21.40039 1.334,8.72396 1.75095,10.36242 3.62695,14.23242 2.088,4.309 6.06288,7 10.33984,7 h 2.30274 l 1.02539,3.09961 c 1.586,4.79899 3.3627,9.07527 5.55469,13.36523 1.271,2.488 1.91667,4.20069 1.76367,4.67969 -0.588,1.854 0.64211,7.24129 2.66211,11.65625 3.97696,8.69396 14.10952,16.47561 25.52148,19.59961 0.99,0.271 2.25078,0.63269 2.80078,0.80469 0.55,0.172 2.35,0.52804 4,0.79101 1.65,0.263 3.98922,0.67507 5.19922,0.91407 3.623,0.718 24.62625,0.52637 29.19922,-0.26563 4.95499,-0.85899 7.06639,-1.28845 8.90039,-1.81445 0.825,-0.236 2.08578,-0.5873 2.80078,-0.7793 2.924,-0.788 10.15041,-4.15375 12.81641,-5.96875 3.78299,-2.57599 11.48242,-11.07097 11.48242,-12.66797 0,-0.12299 0.33614,-0.98596 0.74414,-1.91797 0.409,-0.93296 0.96628,-2.23648 1.23828,-2.89648 0.272,-0.66 0.59571,-2.91 0.72071,-5 0.206,-3.449 0.37981,-4.095 1.88281,-7 1.48499,-2.871 4.92762,-11.1666 6.26562,-15.09961 l 0.50977,-1.5 h 2.32422 c 5.48096,0 10.19328,-4.52759 11.98828,-11.51758 3.36999,-13.12792 3.09613,-29.22407 -0.71484,-42.08203 -2.64799,-8.93096 -10.07759,-13.49898 -16.81055,-10.33398 l -1.84375,0.86718 -1.41211,-1.76562 c -6.29797,-7.88396 -15.58362,-14.62203 -25.89258,-18.791016 -7.54421,-3.050237 -19.16534,-4.97278 -29.75,-5.15625 z m -0.24609,5.644531 c 4.61997,0.0306 9.30498,0.205813 11.39648,0.507813 2.09,0.302 4.34,0.669453 5,0.814453 3.815,0.842989 8.10778,1.918125 8.80078,2.203125 0.44,0.181 1.42922,0.548407 2.19922,0.816406 7.48796,2.605988 13.98766,6.779394 20.22266,12.984378 7.85296,7.81596 11.31723,14.65004 13.36523,26.375 1.347,7.71296 0.005,24.20863 -2.75976,33.93359 -0.235,0.825 -0.5853,2.08578 -0.7793,2.80078 -1.119,4.136 -5.11927,14.32825 -5.94727,15.15625 -0.427,0.427 -5.79075,-6.09064 -6.21875,-7.55664 -0.177,-0.60499 -0.21503,-2.24268 -0.0859,-3.63867 0.207,-2.249 0.5714,-3.90272 1.8164,-8.26172 0.189,-0.66 0.53167,-1.87422 0.76367,-2.69922 0.233,-0.825 0.59093,-2.08578 0.79493,-2.80078 4.79297,-16.73292 4.16027,-26.68215 -2.30469,-36.20312 -6.007,-8.84499 -13.92027,-10.40999 -32.86719,-6.5 -4.01297,0.82799 -10.55761,1.5957 -13.59961,1.5957 -3.04197,0 -9.58661,-0.76771 -13.59961,-1.5957 -16.95992,-3.5 -24.00287,-2.70863 -30.25586,3.40234 -6.22496,6.08496 -9.45356,17.46142 -7.72656,27.23437 1.048,5.93101 2.26303,11.00683 3.58203,14.9668 0.257,0.77001 0.61583,1.9396 0.79883,2.59961 0.182,0.66 0.63491,2.27961 1.00391,3.59961 0.369,1.32 0.69937,3.83961 0.73437,5.59961 l 0.0625,3.20117 -2.97656,3.70313 c -1.648,2.05196 -3.12936,3.55032 -3.31836,3.36132 -0.828,-0.82797 -4.87597,-11.13245 -5.91797,-15.06445 -2.075,-7.82596 -2.38508,-9.29824 -3.58008,-17.0332 -0.982,-6.356 -0.39342,-19.53041 1.14258,-25.56641 3.504,-13.77392 14.93546,-26.31346 29.65039,-32.523435 5.41399,-2.283998 11.26965,-3.792783 19.59961,-5.050781 1.8285,-0.2765 6.38392,-0.391949 11.00391,-0.361329 z m 63.85351,23.726565 c 1.18266,0.0567 2.48888,0.52569 3.42188,1.50781 2.56899,2.703 4.10812,7.0424 5.70312,16.06836 2.622,14.83792 -1.80904,36.08823 -7.58203,36.36523 -1.553,0.074 -1.54103,0.11919 -0.83203,-3.13281 2.747,-12.59396 3.21245,-26.47143 1.18945,-35.40039 -1.06,-4.67397 -2.99847,-10.17203 -4.48047,-12.70703 -1.01934,-1.74312 0.60898,-2.79574 2.58008,-2.70117 z m -128.18359,0.17383 c 1.26125,-0.0816 2.47459,0.0909 2.87109,0.56836 0.333,0.401 0.20723,1.02201 -0.50976,2.5 -1.424,2.93597 -2.11521,4.58923 -2.65821,6.36523 -0.269,0.88 -0.62973,2.05156 -0.80273,2.60156 -0.373,1.183 -0.98655,4.08119 -1.56055,7.36719 -0.533,3.053 -0.5338,16.22808 -0.002,19.95508 0.998,6.98296 1.81348,11.37806 2.39648,12.91406 0.8,2.108 -1.86711,2.24224 -3.91211,0.19727 -3.64196,-3.64199 -5.38701,-11.83597 -5.41601,-25.41993 -0.017,-7.99097 0.11845,-9.44466 1.39844,-15.01367 1.139,-4.95595 3.10998,-9.28517 5.04297,-11.07617 0.58347,-0.541 1.89109,-0.87735 3.15234,-0.95898 z m 35.02344,7.31445 c 1.76466,0.0141 3.72207,0.19259 5.90429,0.52734 2.09,0.321 4.60961,0.76724 5.59961,0.99024 12.42496,2.79796 22.63626,2.79736 35.19922,-0.004 14.57695,-3.251 21.66685,-1.27251 25.75781,7.18945 3.5,7.241 3.93627,14.59806 1.44727,24.41602 -0.251,0.99 -0.60797,2.43117 -0.79297,3.20117 -0.186,0.77 -0.72803,2.65922 -1.20703,4.19922 -4.303,13.84896 -4.11344,17.64489 1.18555,23.67188 6.77997,7.71297 5.96233,16.5216 -2.30664,24.85156 -2.43599,2.45499 -8.57007,6.87695 -9.53907,6.87695 -0.085,0 -1.00685,0.37787 -2.04882,0.83984 -3.24599,1.438 -4.6281,1.93253 -7.4961,2.6875 -27.26788,7.178 -57.55548,0.7628 -67.64844,-14.32812 -5.47996,-8.19196 -4.97696,-14.07515 1.875,-21.91211 2.711,-3.102 3.27078,-4.83607 3.05079,-9.45703 -0.201,-4.24199 -0.32792,-4.88931 -2.25391,-11.5293 -2.308,-7.95596 -2.43316,-8.46718 -3.41016,-13.70117 -1.694,-9.07595 0.32311,-18.60477 5.08008,-24.00977 2.74425,-3.11696 6.30947,-4.55218 11.60352,-4.50976 z" />
      <path
         id="path0"
         style="display:inline;fill:#ffffff;fill-opacity:1;stroke:#ffffff;stroke-width:0;stroke-dasharray:none;stroke-opacity:1"
         d="m 178.99333,149.68599 c -0.4275,-0.0109 -0.84439,0.13856 -1.77539,0.43554 -7.26497,2.316 -5.54887,13.11127 2.07813,13.07227 7.36497,-0.037 8.606,-10.48652 1.54101,-12.97852 -0.978,-0.34548 -1.41625,-0.51842 -1.84375,-0.52929 z m 41.40625,0.21484 c -0.45838,0.0335 -0.91847,0.11934 -1.37109,0.26172 -4.148,1.304 -6.11347,6.81553 -3.60547,10.10352 4.36999,5.72998 13.19836,2.06014 11.94336,-4.96485 -0.59063,-3.31273 -3.75812,-5.63488 -6.9668,-5.40039 z M 187.382,175.88911 c -0.99487,0.0423 -1.78871,0.37549 -2.16796,1.08399 -0.726,1.35699 0.22973,3.64856 2.17773,5.22656 2.871,2.324 9.12375,1.51239 8.46875,-1.09961 -0.714,-2.844 -5.49385,-5.33778 -8.47852,-5.21094 z m 24.80665,0.13086 c -1.1069,-0.0348 -2.48021,0.24883 -4.03321,0.95508 -3.28698,1.495 -5.10009,4.54495 -3.49609,5.87695 1.35399,1.124 6.25028,0.72166 7.94726,-0.65234 3.825,-3.0975 2.90274,-6.07539 -0.41796,-6.17969 z" />
      <path
         id="path0-5"
         style="display:inline;fill:#ffffff;fill-opacity:1;stroke:#ffffff;stroke-width:0;stroke-dasharray:none;stroke-opacity:1"
         d="m 169.31755,193.26216 c -0.56825,-0.0457 -1.04325,0.11315 -1.71875,0.45312 -3.46,1.74101 -0.54049,4.95734 6.60547,7.27735 1.097,0.35599 2.35492,0.80223 2.79492,0.99023 0.44,0.18899 1.70078,0.55735 2.80078,0.81836 1.1,0.262 2.45,0.63699 3,0.83399 11.07196,3.96896 33.85698,1.86296 47.33594,-4.375 5.23399,-2.423 4.46392,-7.55435 -0.83008,-5.52735 -1.048,0.401 -2.89742,1.08834 -4.10742,1.52735 -1.21,0.439 -2.56,0.9469 -3,1.1289 -2.189,0.906 -6.54844,2.0574 -12.39844,3.27539 -3.23697,0.674 -16.89978,0.67844 -19.80078,0.006 -1.21,-0.28 -3.01,-0.693 -4,-0.91601 -4.79497,-1.078 -10.55039,-2.9638 -14.40039,-4.7168 -1.0515,-0.479 -1.713,-0.72964 -2.28125,-0.77539 z" />
    </g>
  </g>
</svg>
