<?xml version="1.0" encoding="UTF-8" standalone="no"?>
<svg
   id="svg"
   version="1.1"
   width="400"
   height="400"
   viewBox="0 0 400 400"
   sodipodi:docname="PRIJ_white.svg"
   inkscape:version="1.3 (0e150ed6c4, 2023-07-21)"
   xmlns:inkscape="http://www.inkscape.org/namespaces/inkscape"
   xmlns:sodipodi="http://sodipodi.sourceforge.net/DTD/sodipodi-0.dtd"
   xmlns="http://www.w3.org/2000/svg"
   xmlns:svg="http://www.w3.org/2000/svg">
  <defs
     id="defs1" />
  <sodipodi:namedview
     id="namedview1"
     pagecolor="#ffffff"
     bordercolor="#666666"
     borderopacity="1.0"
     inkscape:showpageshadow="2"
     inkscape:pageopacity="0.0"
     inkscape:pagecheckerboard="0"
     inkscape:deskcolor="#d1d1d1"
     inkscape:zoom="2.2786516"
     inkscape:cx="169.83728"
     inkscape:cy="206.26234"
     inkscape:window-width="2400"
     inkscape:window-height="1566"
     inkscape:window-x="-11"
     inkscape:window-y="-11"
     inkscape:window-maximized="1"
     inkscape:current-layer="svg" />
  <g
     id="g1"
     transform="translate(-0.01677022,3.1304183)"
     style="fill:#ffffff;stroke:#ffffff">
    <text
       xml:space="preserve"
       style="font-style:normal;font-weight:normal;font-size:27.1696px;font-family:sans-serif;fill:#ffffff;fill-opacity:1;stroke:#ffffff;stroke-width:0.999998"
       x="125.88722"
       y="310.26761"
       id="text1"><tspan
         sodipodi:role="line"
         id="tspan1"
         x="125.88722"
         y="310.26761"
         style="font-style:normal;font-variant:normal;font-weight:bold;font-stretch:normal;font-size:27.1696px;font-family:Sukar;-inkscape-font-specification:'Sukar, Bold';font-variant-ligatures:normal;font-variant-caps:normal;font-variant-numeric:normal;font-variant-east-asian:normal;fill:#ffffff;fill-opacity:1;stroke-width:0.999998;stroke:#ffffff">Software Co.</tspan></text>
    <text
       xml:space="preserve"
       style="font-style:normal;font-variant:normal;font-weight:bold;font-stretch:normal;font-size:67.5767px;font-family:Hussar;-inkscape-font-specification:'Hussar, Bold';font-variant-ligatures:normal;font-variant-caps:normal;font-variant-numeric:normal;font-variant-east-asian:normal;fill:#ffffff;fill-opacity:1;stroke:#ffffff;stroke-width:0.999996"
       x="122.14113"
       y="295.69888"
       id="text2"
       transform="matrix(1.0233086,0,0,0.97722233,0.01677022,-3.1304183)"><tspan
         sodipodi:role="line"
         id="tspan2"
         x="122.14113"
         y="295.69888"
         style="stroke-width:0.999996;fill:#ffffff;fill-opacity:1;stroke:#ffffff">PRIJ</tspan></text>
    <g
       id="g9"
       style="fill:#ffffff;stroke:#ffffff">
      <path
         id="path0-5-6"
         style="display:inline;fill:#ffffff;fill-opacity:1;stroke:#ffffff;stroke-width:1;stroke-dasharray:none;stroke-opacity:1"
         d="m 200.44841,83.221144 c -3.52823,-0.0612 -6.94033,0.0702 -10.04883,0.417969 -20.25892,2.264988 -34.69888,9.415821 -46.21484,22.884767 l -1.98633,2.32422 -1.39844,-0.71485 c -6.75696,-3.45096 -14.40506,1.30201 -17.16406,10.66797 -0.291,0.99 -0.66885,2.24883 -0.83984,2.79883 -0.319,1.027 -0.84213,3.60158 -1.57813,7.76758 -0.534,3.02099 -0.54468,17.94139 -0.0156,21.40039 1.334,8.72396 1.75095,10.36242 3.62695,14.23242 2.088,4.309 6.06288,7 10.33984,7 h 2.30274 l 1.02539,3.09961 c 1.586,4.79899 3.3627,9.07527 5.55469,13.36523 1.271,2.488 1.91667,4.20069 1.76367,4.67969 -0.588,1.854 0.64211,7.24129 2.66211,11.65625 3.97696,8.69396 14.10952,16.47561 25.52148,19.59961 0.99,0.271 2.25078,0.63269 2.80078,0.80469 0.55,0.172 2.35,0.52804 4,0.79101 1.65,0.263 3.98922,0.67507 5.19922,0.91407 3.623,0.718 24.62625,0.52637 29.19922,-0.26563 4.95499,-0.85899 7.06639,-1.28845 8.90039,-1.81445 0.825,-0.236 2.08578,-0.5873 2.80078,-0.7793 2.924,-0.788 10.15041,-4.15375 12.81641,-5.96875 3.78299,-2.57599 11.48242,-11.07097 11.48242,-12.66797 0,-0.12299 0.33614,-0.98596 0.74414,-1.91797 0.409,-0.93296 0.96628,-2.23648 1.23828,-2.89648 0.272,-0.66 0.59571,-2.91 0.72071,-5 0.206,-3.449 0.37981,-4.095 1.88281,-7 1.48499,-2.871 4.92762,-11.1666 6.26562,-15.09961 l 0.50977,-1.5 h 2.32422 c 5.48096,0 10.19328,-4.52759 11.98828,-11.51758 3.36999,-13.12792 3.09613,-29.22407 -0.71484,-42.08203 -2.64799,-8.93096 -10.07759,-13.49898 -16.81055,-10.33398 l -1.84375,0.86718 -1.41211,-1.76562 c -6.29797,-7.88396 -15.58362,-14.62203 -25.89258,-18.791016 -7.54421,-3.050237 -19.16534,-4.97278 -29.75,-5.15625 z m -0.24609,5.644531 c 4.61997,0.0306 9.30498,0.205813 11.39648,0.507813 2.09,0.302 4.34,0.669453 5,0.814453 3.815,0.842989 8.10778,1.918125 8.80078,2.203125 0.44,0.181 1.42922,0.548407 2.19922,0.816406 7.48796,2.605988 13.98766,6.779394 20.22266,12.984378 7.85296,7.81596 11.31723,14.65004 13.36523,26.375 1.347,7.71296 0.005,24.20863 -2.75976,33.93359 -0.235,0.825 -0.5853,2.08578 -0.7793,2.80078 -1.119,4.136 -5.11927,14.32825 -5.94727,15.15625 -0.427,0.427 -5.79075,-6.09064 -6.21875,-7.55664 -0.177,-0.60499 -0.21503,-2.24268 -0.0859,-3.63867 0.207,-2.249 0.5714,-3.90272 1.8164,-8.26172 0.189,-0.66 0.53167,-1.87422 0.76367,-2.69922 0.233,-0.825 0.59093,-2.08578 0.79493,-2.80078 4.79297,-16.73292 4.16027,-26.68215 -2.30469,-36.20312 -6.007,-8.84499 -13.92027,-10.40999 -32.86719,-6.5 -4.01297,0.82799 -10.55761,1.5957 -13.59961,1.5957 -3.04197,0 -9.58661,-0.76771 -13.59961,-1.5957 -16.95992,-3.5 -24.00287,-2.70863 -30.25586,3.40234 -6.22496,6.08496 -9.45356,17.46142 -7.72656,27.23437 1.048,5.93101 2.26303,11.00683 3.58203,14.9668 0.257,0.77001 0.61583,1.9396 0.79883,2.59961 0.182,0.66 0.63491,2.27961 1.00391,3.59961 0.369,1.32 0.69937,3.83961 0.73437,5.59961 l 0.0625,3.20117 -2.97656,3.70313 c -1.648,2.05196 -3.12936,3.55032 -3.31836,3.36132 -0.828,-0.82797 -4.87597,-11.13245 -5.91797,-15.06445 -2.075,-7.82596 -2.38508,-9.29824 -3.58008,-17.0332 -0.982,-6.356 -0.39342,-19.53041 1.14258,-25.56641 3.504,-13.77392 14.93546,-26.31346 29.65039,-32.523435 5.41399,-2.283998 11.26965,-3.792783 19.59961,-5.050781 1.8285,-0.2765 6.38392,-0.391949 11.00391,-0.361329 z m 63.85351,23.726565 c 1.18266,0.0567 2.48888,0.52569 3.42188,1.50781 2.56899,2.703 4.10812,7.0424 5.70312,16.06836 2.622,14.83792 -1.80904,36.08823 -7.58203,36.36523 -1.553,0.074 -1.54103,0.11919 -0.83203,-3.13281 2.747,-12.59396 3.21245,-26.47143 1.18945,-35.40039 -1.06,-4.67397 -2.99847,-10.17203 -4.48047,-12.70703 -1.01934,-1.74312 0.60898,-2.79574 2.58008,-2.70117 z m -128.18359,0.17383 c 1.26125,-0.0816 2.47459,0.0909 2.87109,0.56836 0.333,0.401 0.20723,1.02201 -0.50976,2.5 -1.424,2.93597 -2.11521,4.58923 -2.65821,6.36523 -0.269,0.88 -0.62973,2.05156 -0.80273,2.60156 -0.373,1.183 -0.98655,4.08119 -1.56055,7.36719 -0.533,3.053 -0.5338,16.22808 -0.002,19.95508 0.998,6.98296 1.81348,11.37806 2.39648,12.91406 0.8,2.108 -1.86711,2.24224 -3.91211,0.19727 -3.64196,-3.64199 -5.38701,-11.83597 -5.41601,-25.41993 -0.017,-7.99097 0.11845,-9.44466 1.39844,-15.01367 1.139,-4.95595 3.10998,-9.28517 5.04297,-11.07617 0.58347,-0.541 1.89109,-0.87735 3.15234,-0.95898 z m 35.02344,7.31445 c 1.76466,0.0141 3.72207,0.19259 5.90429,0.52734 2.09,0.321 4.60961,0.76724 5.59961,0.99024 12.42496,2.79796 22.63626,2.79736 35.19922,-0.004 14.57695,-3.251 21.66685,-1.27251 25.75781,7.18945 3.5,7.241 3.93627,14.59806 1.44727,24.41602 -0.251,0.99 -0.60797,2.43117 -0.79297,3.20117 -0.186,0.77 -0.72803,2.65922 -1.20703,4.19922 -4.303,13.84896 -4.11344,17.64489 1.18555,23.67188 6.77997,7.71297 5.96233,16.5216 -2.30664,24.85156 -2.43599,2.45499 -8.57007,6.87695 -9.53907,6.87695 -0.085,0 -1.00685,0.37787 -2.04882,0.83984 -3.24599,1.438 -4.6281,1.93253 -7.4961,2.6875 -27.26788,7.178 -57.55548,0.7628 -67.64844,-14.32812 -5.47996,-8.19196 -4.97696,-14.07515 1.875,-21.91211 2.711,-3.102 3.27078,-4.83607 3.05079,-9.45703 -0.201,-4.24199 -0.32792,-4.88931 -2.25391,-11.5293 -2.308,-7.95596 -2.43316,-8.46718 -3.41016,-13.70117 -1.694,-9.07595 0.32311,-18.60477 5.08008,-24.00977 2.74425,-3.11696 6.30947,-4.55218 11.60352,-4.50976 z" />
      <path
         id="path0"
         style="display:inline;fill:#ffffff;fill-opacity:1;stroke:#ffffff;stroke-width:0;stroke-dasharray:none;stroke-opacity:1"
         d="m 178.99333,149.68599 c -0.4275,-0.0109 -0.84439,0.13856 -1.77539,0.43554 -7.26497,2.316 -5.54887,13.11127 2.07813,13.07227 7.36497,-0.037 8.606,-10.48652 1.54101,-12.97852 -0.978,-0.34548 -1.41625,-0.51842 -1.84375,-0.52929 z m 41.40625,0.21484 c -0.45838,0.0335 -0.91847,0.11934 -1.37109,0.26172 -4.148,1.304 -6.11347,6.81553 -3.60547,10.10352 4.36999,5.72998 13.19836,2.06014 11.94336,-4.96485 -0.59063,-3.31273 -3.75812,-5.63488 -6.9668,-5.40039 z M 187.382,175.88911 c -0.99487,0.0423 -1.78871,0.37549 -2.16796,1.08399 -0.726,1.35699 0.22973,3.64856 2.17773,5.22656 2.871,2.324 9.12375,1.51239 8.46875,-1.09961 -0.714,-2.844 -5.49385,-5.33778 -8.47852,-5.21094 z m 24.80665,0.13086 c -1.1069,-0.0348 -2.48021,0.24883 -4.03321,0.95508 -3.28698,1.495 -5.10009,4.54495 -3.49609,5.87695 1.35399,1.124 6.25028,0.72166 7.94726,-0.65234 3.825,-3.0975 2.90274,-6.07539 -0.41796,-6.17969 z" />
      <path
         id="path0-5"
         style="display:inline;fill:#ffffff;fill-opacity:1;stroke:#ffffff;stroke-width:0;stroke-dasharray:none;stroke-opacity:1"
         d="M 169.31755 193.26216 C 168.7493 193.21646 168.2743 193.37531 167.5988 193.71528 C 164.1388 195.45629 167.05831 198.67262 174.20427 200.99263 C 175.30127 201.34862 176.55919 201.79486 176.99919 201.98286 C 177.43919 202.17185 178.69997 202.54021 179.79997 202.80122 C 180.89997 203.06322 182.24997 203.43821 182.79997 203.63521 C 193.87193 207.60417 216.65695 205.49817 230.13591 199.26021 C 235.3699 196.83721 234.59983 191.70586 229.30583 193.73286 C 228.25783 194.13386 226.40841 194.8212 225.19841 195.26021 C 223.98841 195.69921 222.63841 196.20711 222.19841 196.38911 C 220.00941 197.29511 215.64997 198.44651 209.79997 199.6645 C 206.563 200.3385 192.90019 200.34294 189.99919 199.67036 C 188.78919 199.39036 186.98919 198.97736 185.99919 198.75435 C 181.20422 197.67635 175.4488 195.79055 171.5988 194.03755 C 170.5473 193.55855 169.8858 193.30791 169.31755 193.26216 z " />
    </g>
  </g>
</svg>
